<svg width="56" height="25" fill="none" xmlns="http://www.w3.org/2000/svg"><path d="M48.66 25H7.15a.943.943 0 01-.893-.636L.051 6.308a.942.942 0 011.042-1.234.94.94 0 01.806.56c.768 1.737 3.496 7.348 6.68 7.348l.12-.003c1.92-.086 4.923-2.296 8.326-12.34a.944.944 0 011.787 0c1.162 3.425 5.056 12.287 9.099 12.287h.032c1.917-.023 4.865-2.17 8.021-12.265A.943.943 0 0136.865 0h.01c.416.004.78.28.896.68.965 3.313 4.386 11.994 8.583 12.357 2.452.201 5.17-2.567 7.855-8.035a.943.943 0 011.74.718l-6.396 18.644a.944.944 0 01-.893.636zM7.823 23.118h40.163l3.696-10.774c-1.787 1.886-3.6 2.727-5.492 2.568-4.648-.403-7.837-7.085-9.32-11.012-2.62 7.294-5.544 10.868-8.905 10.907l-.054.002c-4.697 0-8.323-7.184-9.966-11.147-2.803 7.379-5.81 11.047-9.163 11.197-1.718.066-3.214-.788-4.503-2.055l3.544 10.314z" fill="#A07B50"/></svg>