<svg width="16" height="11" fill="none" xmlns="http://www.w3.org/2000/svg"><path d="M13.376 4.826c.847-.071 1.422-.464 1.643-.996-.306.191-1.254.4-1.778.201a6.596 6.596 0 00-.083-.352c-.4-1.494-1.766-2.698-3.198-2.552.116-.048.233-.092.35-.132.158-.058 1.083-.211.937-.544-.123-.293-1.253.221-1.465.288.28-.107.745-.292.795-.621-.43.06-.853.267-1.18.569A.832.832 0 009.625.23c-1.148.748-1.818 2.254-2.36 3.716-.427-.421-.805-.753-1.143-.937-.95-.519-2.087-1.06-3.87-1.736-.055.602.291 1.401 1.29 1.933-.216-.03-.612.037-.929.114.13.689.55 1.257 1.69 1.531-.521.035-.79.156-1.034.416.237.48.816 1.043 1.857.928-1.158.508-.472 1.45.47 1.31A3.946 3.946 0 010 7.656c3.798 5.274 12.055 3.12 13.285-1.961.922.008 1.464-.326 1.8-.693-.531.091-1.301-.003-1.71-.177z" fill="#fff"/></svg>