<svg width="13" height="9" fill="none" xmlns="http://www.w3.org/2000/svg"><path d="M12.884 7.409c-.035-.064-.251-.58-1.291-1.642-1.089-1.11-.943-.93.369-2.852.799-1.17 1.118-1.884 1.018-2.19-.095-.29-.683-.214-.683-.214l-1.953.013s-.145-.022-.253.049c-.104.07-.172.23-.172.23s-.31.906-.722 1.676c-.87 1.624-1.22 1.71-1.361 1.61-.331-.236-.248-.946-.248-1.45 0-1.574.217-2.23-.423-2.4-.213-.057-.37-.094-.913-.1C5.555.13 4.964.14 4.63.32c-.222.12-.394.387-.29.402.13.018.423.086.578.319.2.299.193.972.193.972s.116 1.854-.269 2.084c-.264.158-.625-.164-1.401-1.639-.398-.755-.698-1.59-.698-1.59S2.685.714 2.582.631C2.457.53 2.28.498 2.28.498L.424.51S.144.52.042.652c-.09.119-.007.364-.007.364s1.455 3.74 3.1 5.625c1.511 1.728 3.226 1.615 3.226 1.615h.777s.235-.029.354-.17c.11-.131.106-.376.106-.376s-.015-1.146.47-1.315c.476-.166 1.089 1.108 1.738 1.598.49.37.864.29.864.29l1.736-.027s.909-.062.478-.847z" fill="#fff"/></svg>